<?xml version="1.0" encoding="UTF-8"?>
<svg width="1440" height="1130" id="svg-lab" xmlns="http://www.w3.org/2000/svg" viewBox="0 0 1440 1130">
<defs>
<style>#svg-lab text{font-family:"IBM Plex Sans Thai","Sarabun","Loma","Noto Sans Thai","Sarabun","Segoe UI",sans-serif;fill:#0F1E2E}#svg-lab .h1{font-size:28px;font-weight:700}#svg-lab .sub{font-size:14px;fill:#5A6C7D}#svg-lab .lbl{font-size:15px;font-weight:700}#svg-lab .lbl2{font-size:13px;font-weight:700}#svg-lab .role{font-size:11.5px;fill:#41545F}#svg-lab .tiny{font-size:11px;fill:#5A6C7D}#svg-lab .tag{font-size:11px;font-weight:700;fill:#fff}#svg-lab .th{font-size:11.5px;font-weight:700;fill:#1E6BB8}#svg-lab .td{font-size:11.5px;fill:#33454F}#svg-lab .link{stroke:#4A6274;stroke-width:2.5;fill:none}#svg-lab .link10{stroke:#0E7C86;stroke-width:5;fill:none;stroke-linecap:round}#svg-lab .stackl{stroke:#0E7C86;stroke-width:7;fill:none;stroke-linecap:round}#svg-lab .tunnel{stroke:#FF8300;stroke-width:3;stroke-dasharray:9 6;fill:none}#svg-lab .radius{stroke:#6B4EA8;stroke-width:2.5;stroke-dasharray:3 5;fill:none}#svg-lab .air{stroke:#14996B;stroke-width:2;fill:none;opacity:.75}#svg-lab .grp{fill:#FAFCFE;stroke:#C7D6E2;stroke-width:1.5;stroke-dasharray:6 5}
</style>
<marker id="ar-svg-lab" viewBox="0 0 10 10" refX="9" refY="5" markerWidth="7" markerHeight="7" orient="auto-start-reverse">
<path d="M0 0 L10 5 L0 10 z" fill="#FF8300"/></marker>
</defs>

<rect width="1440" height="1130" fill="#FFFFFF"/>
<text class="h1" x="40" y="48">Aruba Campus Network Training — Lab Topology</text>
<text class="sub" x="40" y="74">RMUTT × Commserv Siam · 26 ส.ค. 2569 · Module 1: Aruba Switch (CX) — Module 2: Mobility Controller + Access Point</text>
<line x1="40" y1="90" x2="1400" y2="90" stroke="#E1E9EF" stroke-width="2"/>

<!-- Internet + edge -->
<path d="M75 148 a30 30 0 0 1 30-30 h110 a30 30 0 0 1 0 60 h-110 a30 30 0 0 1-30-30z" fill="#EEF3F7" stroke="#8FA6B6" stroke-width="2"/>
<text class="lbl" x="128" y="143">Internet</text>
<text class="tiny" x="95" y="160">Venue WAN / 4G Router</text>
<rect x="75" y="215" width="180" height="58" rx="8" fill="#FDECEC" stroke="#C0504D" stroke-width="2"/>
<text class="lbl2" x="90" y="240">NAT Router / Firewall</text>
<text class="role" x="90" y="259">VLAN 100 · 192.168.100.254</text>
<line class="link" x1="165" y1="178" x2="165" y2="215"/>
<line class="link" x1="255" y1="244" x2="330" y2="244"/>

<!-- Core -->
<rect x="330" y="185" width="470" height="122" rx="10" fill="#E8F1F8" stroke="#1E6BB8" stroke-width="2.5"/>
<rect x="330" y="185" width="470" height="26" rx="10" fill="#1E6BB8"/>
<text class="tag" x="344" y="203">CORE (ใช้ร่วมกันทุก Pod) — Aruba CX 8325 / CX 6300M</text>
<text class="role" x="344" y="233">• SVI ทุก VLAN ของทุก Pod + Inter-VLAN routing</text>
<text class="role" x="344" y="252">• DHCP relay (ip helper-address » Services VM) หรือ DHCP pool บน Core</text>
<text class="role" x="344" y="271">• Default route 0.0.0.0/0 » 192.168.100.254</text>
<text class="role" x="344" y="290">• Uplink 10G + LAG ลงทุก Pod / ขึ้น Controller</text>

<!-- Mobility Controller -->
<rect x="1000" y="118" width="400" height="122" rx="10" fill="#FFF3E6" stroke="#FF8300" stroke-width="2.5"/>
<rect x="1000" y="118" width="400" height="26" rx="10" fill="#FF8300"/>
<text class="tag" x="1014" y="136">MOBILITY CONTROLLER (AOS-8) — 7010 / VMC</text>
<text class="role" x="1014" y="166">• AP onboarding + GRE tunnel termination</text>
<text class="role" x="1014" y="185">• WLAN/SSID, VLAN, AAA profile, User Role</text>
<text class="role" x="1014" y="204">• Captive portal, Application Control (AppRF)</text>
<text class="role" x="1014" y="223">• Dashboard / Monitoring — MGMT 192.168.200.10</text>
<path class="link10" d="M800 200 H 1000"/>
<text class="tiny" x="812" y="190">LAG 2x10G (VLAN 200 + user VLANs)</text>

<!-- ClearPass -->
<rect x="1000" y="262" width="400" height="96" rx="10" fill="#F1ECFB" stroke="#6B4EA8" stroke-width="2.5"/>
<text class="lbl2" x="1014" y="288">ClearPass Policy Manager (VM) — RADIUS</text>
<text class="role" x="1014" y="308">• 802.1X: wired (Module 1) + wireless (Module 2)</text>
<text class="role" x="1014" y="327">• MAC Authentication (IoT) · Guest self-register</text>
<text class="role" x="1014" y="346">• 192.168.200.20 — shared secret ต่อ Pod</text>
<path class="radius" d="M1000 300 H 880 V 307"/>

<!-- Services -->
<rect x="1000" y="378" width="400" height="66" rx="10" fill="#EFF6F1" stroke="#4B8F6E" stroke-width="2"/>
<text class="lbl2" x="1014" y="402">Services VM — DHCP / DNS / NTP / CA / Syslog</text>
<text class="role" x="1014" y="424">192.168.200.30 · ปลายทางของ DHCP relay</text>
<path class="link" d="M1000 410 H 850 V 307"/>

<!-- Tunnel indication -->
<path class="tunnel" marker-end="url(#ar-svg-lab)" d="M700 330 C 820 380 900 330 985 250" />
<text class="tiny" x="622" y="398" fill="#C4620A" font-size="12" font-weight="700">GRE Tunnel: AP » MC</text>

<path class="link10" d="M150 512 L 424 307"/>
<path class="link10" d="M410 512 L 518 307"/>
<path class="link10" d="M610 512 L 612 307"/>
<path class="link10" d="M870 512 L 706 307"/>
<text class="tiny" x="74" y="446">LAG 2x10G (SFP+) ขึ้น Core</text>

<!-- ============ POD 1 ============ -->
<rect class="grp" x="60" y="470" width="440" height="420" rx="12"/>
<rect x="60" y="470" width="120" height="28" rx="10" fill="#1E6BB8"/>
<text class="tag" x="76" y="489">POD 1 (2–3 คน)</text>

<rect x="82" y="512" width="396" height="106" rx="9" fill="#F2F7FB" stroke="#1E6BB8" stroke-width="1.5" stroke-dasharray="5 4"/>
<text class="lbl2" x="96" y="534">Access Stack — 2x Aruba CX 6300F 24G PoE+ (VSF)</text>
<rect x="96" y="546" width="170" height="58" rx="7" fill="#E9F2FA" stroke="#1E6BB8" stroke-width="2"/>
<text class="lbl2" x="110" y="568">SW1-POD1</text>
<text class="role" x="110" y="588">Commander · Mbr 1</text>
<rect x="296" y="546" width="170" height="58" rx="7" fill="#E9F2FA" stroke="#1E6BB8" stroke-width="2"/>
<text class="lbl2" x="310" y="568">SW2-POD1</text>
<text class="role" x="310" y="588">Standby · Mbr 2</text>
<path class="stackl" d="M266 575 H 296"/>
<text class="tiny" x="238" y="640">VSF stack link</text>

<rect x="88" y="676" width="118" height="66" rx="9" fill="#E9F7F1" stroke="#14996B" stroke-width="2"/>
<text class="lbl2" x="102" y="700">AP-515</text>
<text class="role" x="102" y="720">PoE+ · port 1/1/1</text>
<rect x="222" y="676" width="118" height="66" rx="9" fill="#E9F7F1" stroke="#14996B" stroke-width="2"/>
<text class="lbl2" x="236" y="700">AP-505</text>
<text class="role" x="236" y="720">PoE+ · port 2/1/1</text>
<rect x="356" y="676" width="122" height="66" rx="9" fill="#F5F7F8" stroke="#8FA6B6" stroke-width="2"/>
<text class="lbl2" x="370" y="700">PC (wired)</text>
<text class="role" x="370" y="720">802.1X + DHCP test</text>
<line class="link" x1="147" y1="604" x2="147" y2="676"/>
<line class="link" x1="281" y1="604" x2="281" y2="676"/>
<line class="link" x1="417" y1="604" x2="417" y2="676"/>
<text class="tiny" x="152" y="646">PoE+</text>
<text class="tiny" x="422" y="646">VLAN 12</text>

<path class="air" d="M118 668 a38 38 0 0 1 56 0"/>
<path class="air" d="M252 668 a38 38 0 0 1 56 0"/>
<rect x="88" y="790" width="252" height="62" rx="9" fill="#F5F7F8" stroke="#8FA6B6" stroke-width="2"/>
<text class="lbl2" x="102" y="813">Wireless clients</text>
<text class="role" x="102" y="832">Notebook / Mobile / IoT</text>
<line class="link" x1="214" y1="742" x2="214" y2="790" stroke-dasharray="4 4"/>
<text class="role" x="88" y="874">SSID: POD1-EMP (802.1X) · POD1-GUEST (Portal) · POD1-IOT (PSK/MAC)</text>

<!-- ============ POD 2 ============ -->
<rect class="grp" x="520" y="470" width="440" height="420" rx="12"/>
<rect x="520" y="470" width="120" height="28" rx="10" fill="#1E6BB8"/>
<text class="tag" x="536" y="489">POD 2 (2–3 คน)</text>

<rect x="542" y="512" width="396" height="106" rx="9" fill="#F2F7FB" stroke="#1E6BB8" stroke-width="1.5" stroke-dasharray="5 4"/>
<text class="lbl2" x="556" y="534">Access Stack — 2x Aruba CX 6300F 24G PoE+ (VSF)</text>
<rect x="556" y="546" width="170" height="58" rx="7" fill="#E9F2FA" stroke="#1E6BB8" stroke-width="2"/>
<text class="lbl2" x="570" y="568">SW1-POD2</text>
<text class="role" x="570" y="588">Commander · Mbr 1</text>
<rect x="756" y="546" width="170" height="58" rx="7" fill="#E9F2FA" stroke="#1E6BB8" stroke-width="2"/>
<text class="lbl2" x="770" y="568">SW2-POD2</text>
<text class="role" x="770" y="588">Standby · Mbr 2</text>
<path class="stackl" d="M726 575 H 756"/>

<rect x="548" y="676" width="118" height="66" rx="9" fill="#E9F7F1" stroke="#14996B" stroke-width="2"/>
<text class="lbl2" x="562" y="700">AP-515</text>
<text class="role" x="562" y="720">PoE+ · port 1/1/1</text>
<rect x="682" y="676" width="118" height="66" rx="9" fill="#E9F7F1" stroke="#14996B" stroke-width="2"/>
<text class="lbl2" x="696" y="700">AP-505</text>
<text class="role" x="696" y="720">PoE+ · port 2/1/1</text>
<rect x="816" y="676" width="122" height="66" rx="9" fill="#F5F7F8" stroke="#8FA6B6" stroke-width="2"/>
<text class="lbl2" x="830" y="700">PC (wired)</text>
<text class="role" x="830" y="720">802.1X + DHCP test</text>
<line class="link" x1="607" y1="604" x2="607" y2="676"/>
<line class="link" x1="741" y1="604" x2="741" y2="676"/>
<line class="link" x1="877" y1="604" x2="877" y2="676"/>
<text class="tiny" x="882" y="646">VLAN 22</text>

<path class="air" d="M578 668 a38 38 0 0 1 56 0"/>
<path class="air" d="M712 668 a38 38 0 0 1 56 0"/>
<rect x="548" y="790" width="252" height="62" rx="9" fill="#F5F7F8" stroke="#8FA6B6" stroke-width="2"/>
<text class="lbl2" x="562" y="813">Wireless clients</text>
<text class="role" x="562" y="832">Notebook / Mobile / IoT</text>
<line class="link" x1="674" y1="742" x2="674" y2="790" stroke-dasharray="4 4"/>
<text class="role" x="548" y="874">SSID: POD2-EMP (802.1X) · POD2-GUEST (Portal) · POD2-IOT (PSK/MAC)</text>

<!-- ============ POD n note ============ -->
<rect class="grp" x="1000" y="470" width="400" height="420" rx="12"/>
<rect x="1000" y="470" width="150" height="28" rx="10" fill="#7A8C99"/>
<text class="tag" x="1016" y="489">POD 3 ... POD n</text>
<text class="role" x="1016" y="524">• อุปกรณ์และการต่อสายเหมือน Pod 1 ทุกประการ</text>
<text class="role" x="1016" y="546">• เปลี่ยนเฉพาะ VLAN ID / Subnet / ชื่อ SSID ตามตารางด้านล่าง</text>
<text class="role" x="1016" y="568">• แนะนำ 2–3 คน/Pod เพื่อให้ทุกคนได้ลงมือ config</text>

<line x1="1016" y1="588" x2="1384" y2="588" stroke="#E1E9EF" stroke-width="1.5"/>
<text class="lbl2" x="1016" y="612">ถ้าอุปกรณ์ไม่พอ (ปรับได้)</text>
<text class="role" x="1016" y="634">• Stack: ถ้ามีสวิตช์ตัวเดียว/Pod » สอน VSF แบบ demo รวม</text>
<text class="role" x="1016" y="656">• Controller: ใช้ MC ตัวเดียวร่วมกันได้ แยก SSID + VLAN ต่อ Pod</text>
<text class="role" x="1016" y="678">  (แต่ละ Pod สร้าง WLAN/AAA profile ของตัวเอง ไม่ทับกัน)</text>
<text class="role" x="1016" y="700">• ClearPass: 1 VM ใช้ร่วม — เพิ่ม NAD ทุก Pod, Service แยกตาม NAD</text>
<text class="role" x="1016" y="722">• AP: อย่างน้อย 1 ตัว/Pod (2 ตัว จะสาธิต roaming ได้)</text>

<line x1="1016" y1="742" x2="1384" y2="742" stroke="#E1E9EF" stroke-width="1.5"/>
<text class="lbl2" x="1016" y="766">อุปกรณ์ที่ผู้เข้าอบรมต้องเตรียม</text>
<text class="role" x="1016" y="788">• Notebook 1 เครื่อง (มี LAN port หรือ USB-LAN) + สาย Console/USB-C</text>
<text class="role" x="1016" y="810">• PuTTY / SecureCRT, Wi-Fi adapter, มือถือสำหรับทดสอบ Guest portal</text>
<text class="role" x="1016" y="832">• Switch MGMT: 192.168.200.x/24 (VLAN 200) เข้าถึง MC/CPPM ได้</text>
<text class="role" x="1016" y="862">* ตรวจสอบว่า Venue อนุญาตให้ตั้ง SSID เพิ่มได้ และไม่ชนช่องสัญญาณ</text>

<!-- ============ bottom band ============ -->
<rect x="60" y="912" width="440" height="192" rx="10" fill="#F7FAFC" stroke="#E1E9EF" stroke-width="1.5"/>
<text class="lbl2" x="78" y="938">Legend</text>
<line class="link" x1="80" y1="962" x2="128" y2="962"/><text class="tiny" x="138" y="966">Copper 1G (AP / PC)</text>
<line class="link10" x1="80" y1="988" x2="128" y2="988"/><text class="tiny" x="138" y="992">10G Fiber / LAG uplink</text>
<path class="stackl" d="M80 1014 H 128"/><text class="tiny" x="138" y="1018">VSF Stack link</text>
<path class="tunnel" d="M80 1040 H 128"/><text class="tiny" x="138" y="1044">GRE Tunnel (AP — Controller)</text>
<path class="radius" d="M80 1066 H 128"/><text class="tiny" x="138" y="1070">RADIUS (802.1X / MAC Auth)</text>
<path class="air" d="M84 1094 a24 24 0 0 1 40 0"/><text class="tiny" x="138" y="1094">Wireless (SSID broadcast)</text>

<rect x="520" y="912" width="440" height="192" rx="10" fill="#F7FAFC" stroke="#E1E9EF" stroke-width="1.5"/>
<text class="lbl2" x="538" y="938">VLAN / IP Plan (n = หมายเลข Pod)</text>
<text class="th" x="538" y="960">VLAN</text><text class="th" x="596" y="960">ชื่อ / การใช้งาน</text><text class="th" x="812" y="960">Subnet</text>
<line x1="538" y1="966" x2="942" y2="966" stroke="#DCE6ED"/>
<text class="td" x="538" y="984">n1</text><text class="td" x="596" y="984">MGMT (Switch / AP)</text><text class="td" x="812" y="984">10.n.1.0/24</text>
<text class="td" x="538" y="1002">n2</text><text class="td" x="596" y="1002">Wired Users — 802.1X</text><text class="td" x="812" y="1002">10.n.2.0/24</text>
<text class="td" x="538" y="1020">n3</text><text class="td" x="596" y="1020">WLAN Employee — 802.1X</text><text class="td" x="812" y="1020">10.n.3.0/24</text>
<text class="td" x="538" y="1038">n4</text><text class="td" x="596" y="1038">WLAN Guest — Captive portal</text><text class="td" x="812" y="1038">10.n.4.0/24</text>
<text class="td" x="538" y="1056">n5</text><text class="td" x="596" y="1056">WLAN IoT — PSK + MAC Auth</text><text class="td" x="812" y="1056">10.n.5.0/24</text>
<text class="td" x="538" y="1074">100</text><text class="td" x="596" y="1074">Transit / Internet uplink</text><text class="td" x="812" y="1074">192.168.100.0/24</text>
<text class="td" x="538" y="1092">200</text><text class="td" x="596" y="1092">Servers: MC / CPPM / DHCP</text><text class="td" x="812" y="1092">192.168.200.0/24</text>

<rect x="1000" y="912" width="400" height="192" rx="10" fill="#F7FAFC" stroke="#E1E9EF" stroke-width="1.5"/>
<text class="lbl2" x="1018" y="938">หัวข้อในหลักสูตร » ทำที่ไหนในแลบ</text>
<text class="td" x="1018" y="960">M1 Stacking / LAG / 10G uplink » SW1+SW2 — Core</text>
<text class="td" x="1018" y="979">M1 PoE budget / Redundant PSU » พอร์ตที่ต่อ AP</text>
<text class="td" x="1018" y="998">M1 VLAN » VLAN n1–n5 บน Access + Core</text>
<text class="td" x="1018" y="1017">M1 Routing / DHCP relay » SVI + ip helper บน Core</text>
<text class="td" x="1018" y="1036">M1 802.1X (wired) » PC » SW » ClearPass</text>
<text class="td" x="1018" y="1055">M2 AP onboarding / WLAN » AP — MC (GRE)</text>
<text class="td" x="1018" y="1074">M2 PSK / Portal / 802.1X / MAC » 3 SSID ต่อ Pod</text>
<text class="td" x="1018" y="1093">M2 AppRF policy + Dashboard » User Role บน MC</text>
</svg>
